<?xml version="1.0" standalone="no"?>
<!DOCTYPE svg PUBLIC "-//W3C//DTD SVG 20010904//EN"
 "http://www.w3.org/TR/2001/REC-SVG-20010904/DTD/svg10.dtd">
<svg version="1.0" xmlns="http://www.w3.org/2000/svg"
 width="600.000000pt" height="600.000000pt" viewBox="0 0 600.000000 600.000000"
 preserveAspectRatio="xMidYMid meet">
<metadata>
Created by potrace 1.11, written by Peter Selinger 2001-2013
</metadata>
<g transform="translate(0.000000,600.000000) scale(0.100000,-0.100000)"
fill="#000000" stroke="none">
<path d="M2675 5991 c-11 -11 -98 -36 -190 -55 -33 -7 -114 -12 -180 -11 -127
1 -166 -9 -185 -46 -6 -10 -19 -19 -30 -19 -10 0 -20 -4 -22 -10 -1 -5 -40
-15 -85 -20 -44 -6 -107 -20 -140 -31 -59 -20 -142 -42 -248 -63 -33 -7 -70
-18 -82 -24 -13 -7 -32 -17 -43 -22 -12 -6 -26 -8 -32 -4 -5 4 -13 2 -17 -3
-3 -5 -28 -17 -56 -27 -85 -32 -129 -71 -181 -159 -26 -42 -155 -167 -174
-167 -6 0 -10 -9 -10 -21 0 -11 -4 -18 -10 -14 -11 7 -50 -25 -50 -42 0 -9 8
-9 33 -2 42 14 78 31 97 47 53 45 80 62 98 62 12 0 33 5 49 11 68 26 173 -6
173 -52 0 -11 4 -18 8 -15 15 9 52 -98 82 -241 7 -29 18 -54 27 -57 32 -12 1
-126 -34 -126 -11 0 -37 -59 -35 -80 0 -8 -5 -62 -13 -119 -16 -126 -10 -153
35 -145 20 4 38 1 56 -11 25 -16 26 -20 19 -68 -7 -60 -34 -108 -76 -138 -31
-22 -37 -47 -17 -67 23 -23 24 -165 3 -199 -8 -12 -24 -24 -35 -28 -11 -3 -20
-13 -20 -20 0 -11 11 -10 56 5 100 35 244 13 302 -46 20 -19 27 -21 43 -11 11
7 22 21 25 32 3 11 14 38 24 60 20 46 15 114 -15 200 -10 28 -17 75 -17 105 1
30 -4 69 -10 87 -12 34 0 93 29 141 12 19 11 25 -3 47 -15 24 -15 29 -1 66 9
22 14 46 11 54 -3 7 4 23 15 34 30 30 25 59 -18 114 -12 15 -12 17 0 18 8 1
-15 5 -51 9 -49 6 -69 5 -80 -6 -14 -11 -22 -10 -58 7 -39 20 -55 39 -32 39 6
0 10 18 10 40 0 43 -1 42 75 44 l30 1 -4 105 c-2 58 -7 113 -12 122 -6 10 -5
19 1 23 5 3 10 38 10 76 0 39 5 79 10 90 14 25 63 50 97 48 16 0 46 5 68 11
22 6 49 11 60 11 11 -1 42 -1 68 -1 30 1 63 -6 87 -19 36 -19 80 -19 80 0 0 5
7 9 15 9 8 0 15 4 15 10 0 37 210 61 243 28 16 -15 96 -38 135 -38 10 0 23 5
29 11 6 6 62 14 124 19 63 5 132 12 154 15 32 5 53 0 105 -24 36 -17 70 -31
75 -31 6 0 31 -20 58 -44 26 -24 54 -47 63 -50 8 -3 13 -10 9 -15 -3 -5 5 -17
17 -25 19 -14 20 -16 4 -16 -15 0 -17 -6 -11 -42 11 -61 45 -100 122 -139 38
-18 71 -35 76 -36 4 -1 3 1 -3 4 -12 5 -4 23 11 23 5 0 9 -11 9 -24 0 -14 5
-28 10 -31 6 -3 10 -17 10 -29 0 -13 7 -29 15 -36 9 -7 15 -35 17 -73 l3 -62
40 0 c35 0 40 -3 40 -23 0 -13 7 -27 14 -32 8 -4 11 -15 7 -25 -7 -19 82 -115
107 -115 8 0 20 -7 27 -15 7 -8 18 -15 24 -15 6 0 18 -15 27 -32 8 -17 24 -36
35 -42 10 -6 21 -13 24 -16 3 -3 21 -16 42 -30 20 -13 44 -38 54 -55 10 -16
28 -40 42 -53 20 -19 23 -29 18 -58 -6 -30 -4 -35 19 -44 31 -12 32 -27 3 -33
-15 -3 -9 -5 14 -6 47 -1 70 -24 62 -59 -4 -15 -11 -33 -17 -40 -8 -10 -7 -16
1 -20 6 -4 20 -29 31 -55 12 -27 27 -47 36 -47 8 0 15 5 15 12 0 6 2 9 5 6 11
-11 -6 -34 -35 -46 -38 -17 -38 -27 0 -41 17 -5 30 -14 30 -19 0 -5 15 -15 33
-22 59 -22 77 -33 77 -47 0 -7 -7 -16 -15 -19 -8 -4 -15 -15 -15 -25 0 -10 -6
-19 -14 -19 -8 0 -18 -9 -21 -21 -4 -11 -18 -25 -31 -31 -14 -7 -24 -20 -24
-32 0 -26 -17 -86 -30 -106 -7 -11 -27 -14 -75 -13 -77 1 -85 -17 -14 -30 28
-5 50 -16 58 -29 10 -17 10 -19 -1 -16 -20 8 -38 -32 -26 -58 7 -15 16 -20 32
-17 16 4 18 2 7 -5 -11 -8 -10 -12 8 -21 25 -14 29 -33 4 -24 -12 5 -15 2 -10
-10 4 -9 9 -23 12 -29 3 -7 -6 -26 -20 -42 -13 -16 -23 -32 -20 -36 2 -4 -14
-12 -36 -19 -29 -9 -38 -16 -31 -24 16 -21 9 -48 -15 -58 -16 -6 -23 -17 -23
-34 0 -24 -3 -25 -59 -25 -51 0 -61 -3 -66 -20 -4 -11 -10 -18 -15 -15 -10 6
-62 -15 -72 -29 -4 -6 -4 -14 -1 -19 4 -6 -13 -7 -41 -3 l-46 7 6 -40 c5 -33
4 -41 -9 -41 -9 0 -19 5 -22 10 -3 6 -15 10 -26 10 -10 0 -19 -4 -19 -10 0 -5
11 -10 25 -10 14 0 25 -3 25 -8 0 -9 -42 -37 -52 -34 -5 1 -8 -13 -7 -30 0
-18 3 -27 6 -20 9 23 23 1 23 -38 0 -28 5 -42 18 -49 38 -20 3 -105 -48 -116
-23 -5 -29 -13 -34 -44 -3 -21 -15 -48 -26 -61 -12 -14 -19 -32 -17 -41 3 -11
-3 -19 -15 -23 -15 -3 -19 -9 -13 -23 4 -10 13 -38 20 -63 7 -24 14 -38 16
-31 6 16 39 3 39 -15 0 -8 6 -14 14 -14 8 0 24 -12 35 -26 28 -35 70 -58 76
-41 2 7 12 36 21 64 16 51 17 52 37 38 12 -8 30 -15 40 -15 27 0 82 -61 111
-122 14 -29 37 -66 52 -83 14 -16 35 -42 47 -57 12 -15 28 -28 35 -28 6 0 12
-6 12 -13 0 -21 28 -72 50 -92 13 -11 18 -25 14 -37 -3 -10 0 -18 7 -18 8 0
10 -13 6 -40 -4 -31 -2 -40 10 -40 15 0 14 -20 -3 -64 -4 -11 0 -16 14 -16 25
0 48 -25 32 -35 -20 -12 -4 -30 26 -30 22 0 28 -4 26 -17 -1 -9 7 -22 18 -28
11 -6 20 -20 20 -30 0 -13 7 -20 20 -20 11 0 20 -6 20 -14 0 -10 -9 -14 -27
-13 -19 1 -28 -3 -28 -13 0 -10 9 -14 29 -13 23 2 27 -1 23 -17 -3 -11 1 -24
9 -31 11 -9 14 -8 14 7 0 16 2 17 10 4 5 -8 10 -24 10 -36 0 -11 6 -29 14 -39
12 -17 16 -17 30 -6 9 8 18 12 20 10 12 -16 27 -70 21 -79 -4 -6 6 -13 24 -16
17 -4 31 -13 31 -20 0 -8 7 -14 15 -14 17 0 39 -36 30 -50 -9 -14 -45 7 -45
25 0 16 -18 19 -45 9 -13 -5 -14 -9 -3 -15 10 -7 7 -11 -9 -15 -13 -4 -23 -10
-23 -15 0 -5 -6 -9 -13 -9 -13 0 -47 -69 -47 -96 0 -29 -24 -99 -36 -106 -6
-4 -17 -21 -24 -38 -19 -45 -102 -80 -142 -59 -9 5 -20 18 -23 29 -3 11 -10
20 -16 20 -14 0 -49 33 -49 46 0 6 -7 17 -16 25 -25 21 -38 -10 -15 -36 11
-11 21 -29 23 -40 2 -11 11 -19 21 -19 27 3 20 -11 -14 -23 -17 -7 -28 -16
-25 -21 8 -13 -47 -62 -80 -71 -16 -4 -33 -17 -39 -29 -5 -12 -18 -22 -27 -22
-23 0 -50 -30 -81 -93 -30 -59 -88 -117 -117 -117 -22 0 -37 -19 -22 -29 7 -4
8 -12 2 -21 -6 -8 -10 -27 -10 -42 0 -27 -3 -30 -45 -33 -11 -1 -41 -8 -67
-15 -38 -11 -50 -21 -65 -51 -15 -32 -22 -37 -44 -32 -21 4 -27 0 -32 -17 -5
-21 -10 -22 -57 -18 -29 3 -55 10 -59 16 -4 7 -22 4 -53 -10 -41 -17 -46 -23
-38 -39 6 -10 10 -26 10 -36 0 -28 37 -45 104 -49 100 -6 164 -19 184 -37 11
-10 26 -15 35 -11 9 3 30 -1 46 -9 16 -8 40 -13 53 -10 12 2 32 -2 42 -10 18
-13 18 -18 7 -46 -9 -20 -23 -33 -40 -37 -27 -6 -49 -15 -90 -39 -17 -9 -31
-11 -48 -4 -32 12 -80 12 -88 -1 -4 -6 6 -10 22 -10 l28 -1 -34 -15 c-19 -8
-42 -13 -50 -12 -9 1 -26 -5 -39 -14 -13 -8 -31 -14 -40 -11 -9 2 -26 -3 -37
-11 -18 -14 -1 -15 177 -16 147 0 198 3 202 13 5 9 7 9 12 0 4 -10 55 -13 207
-12 l202 0 45 33 c25 18 49 42 55 54 14 31 85 32 85 2 0 -27 14 -25 28 4 6 14
22 26 40 29 20 4 37 18 52 42 12 20 30 35 41 35 10 0 24 9 31 20 10 15 24 20
55 20 23 0 45 5 48 10 12 20 25 9 25 -20 0 -25 4 -30 24 -30 28 0 49 22 40 43
-10 26 5 39 24 21 15 -16 18 -14 48 20 18 20 40 36 53 36 11 0 21 6 21 13 0
22 39 47 75 47 18 0 37 5 40 10 9 15 45 12 45 -4 0 -8 -4 -18 -10 -21 -5 -3
-10 -15 -10 -26 0 -10 5 -19 10 -19 6 0 10 7 10 15 0 8 6 15 14 15 8 0 16 -7
20 -15 13 -34 75 5 76 48 0 11 8 17 23 17 16 0 26 9 34 30 10 27 15 30 57 30
25 0 46 5 46 10 0 18 29 10 55 -16 14 -14 25 -31 24 -37 -5 -38 23 -63 79 -71
28 -4 27 -35 -3 -46 -14 -5 -29 -20 -34 -32 -5 -14 -10 -17 -15 -10 -11 18
-26 14 -26 -6 0 -18 -49 -62 -69 -62 -5 0 -24 -12 -41 -26 -17 -15 -52 -31
-78 -36 -26 -4 -48 -13 -50 -18 -2 -6 -15 -10 -28 -10 -13 0 -24 -4 -24 -10 0
-5 -16 -10 -36 -10 -23 0 -42 -6 -50 -17 -9 -12 -16 -14 -21 -8 -5 6 -26 10
-48 10 -33 0 -43 -5 -57 -28 -10 -15 -18 -30 -18 -32 0 -3 279 -5 620 -5 l620
0 0 338 c0 326 -1 339 -20 360 -20 21 -23 21 -58 7 -36 -15 -102 -77 -102 -96
0 -5 -12 -14 -26 -19 -14 -6 -28 -19 -31 -29 -3 -11 -18 -24 -34 -30 -16 -5
-29 -14 -29 -18 0 -5 -15 -15 -34 -21 -42 -15 -91 -59 -100 -90 -4 -12 -12
-22 -18 -22 -5 0 -8 7 -5 15 9 22 -11 29 -86 30 l-69 0 -15 38 c-20 48 -11 80
28 105 l32 20 -24 13 c-13 7 -30 12 -36 11 -7 -2 -13 2 -13 8 0 5 18 10 40 10
35 0 40 3 40 24 0 15 7 26 20 29 11 3 22 17 26 33 4 16 22 43 39 59 28 26 47
66 50 101 1 18 61 64 84 64 12 0 21 5 21 10 0 6 6 10 13 10 7 0 23 20 35 45
15 31 26 43 37 39 11 -5 15 1 15 20 0 19 5 26 20 26 11 0 20 7 20 15 0 9 13
18 31 22 29 5 30 8 25 39 -6 29 -3 35 24 50 16 10 30 23 30 30 0 6 11 22 24
35 12 13 28 34 35 46 8 16 11 617 11 2347 l0 2326 -1658 0 c-1032 0 -1662 -4
-1667 -9z m1097 -936 c-3 -46 -15 -60 -59 -70 -35 -7 -42 -1 -53 51 -7 29 -4
37 14 49 12 10 37 15 61 13 l40 -3 -3 -40z m-2202 -104 c0 -18 -18 -21 -30 -6
-10 13 -9 15 9 15 11 0 21 -4 21 -9z m50 -62 c0 -5 -7 -9 -15 -9 -15 0 -20 12
-9 23 8 8 24 -1 24 -14z m3095 -467 c17 -98 -2 -172 -45 -172 -18 0 -28 28
-34 96 -1 16 -6 35 -10 42 -10 16 20 70 41 74 30 7 41 -2 48 -40z m30 -336 c0
-30 -31 -44 -51 -24 -24 24 -11 50 23 46 20 -2 28 -9 28 -22z m-1011 -1018
c-3 -4 -15 -8 -27 -8 -15 0 -18 3 -9 8 17 11 43 11 36 0z m59 -13 c-3 -9 -8
-14 -10 -11 -3 3 -2 9 2 15 9 16 15 13 8 -4z m62 -5 c3 -5 -1 -10 -9 -10 -9 0
-16 5 -16 10 0 6 4 10 9 10 6 0 13 -4 16 -10z m226 -472 c1 -7 2 -42 3 -78 1
-36 6 -91 10 -122 6 -41 5 -58 -3 -58 -6 0 -11 5 -11 11 0 6 -7 8 -16 5 -8 -3
-13 -2 -11 2 2 4 -4 15 -15 25 -10 9 -18 15 -18 12 0 -3 -10 5 -21 16 -17 17
-19 23 -8 30 11 7 11 9 -2 9 -25 0 -67 43 -70 70 -4 49 0 60 24 60 13 0 27 4
33 9 21 21 103 27 105 9z m101 -223 c0 -5 -5 -11 -11 -13 -6 -2 -11 4 -11 13
0 9 5 15 11 13 6 -2 11 -8 11 -13z m1158 -1899 c0 -9 -30 -14 -35 -6 -4 6 3
10 14 10 12 0 21 -2 21 -4z m-1957 -63 c-7 -2 -21 -2 -30 0 -10 3 -4 5 12 5
17 0 24 -2 18 -5z m317 -223 c0 -5 -4 -10 -10 -10 -5 0 -10 5 -10 10 0 6 5 10
10 10 6 0 10 -4 10 -10z m-60 -80 c0 -5 -7 -10 -15 -10 -8 0 -15 5 -15 10 0 6
7 10 15 10 8 0 15 -4 15 -10z m74 -56 c4 -11 1 -14 -11 -12 -10 2 -19 11 -21
21 -4 21 24 13 32 -9z m1106 2 c0 -3 -4 -8 -10 -11 -5 -3 -10 -1 -10 4 0 6 5
11 10 11 6 0 10 -2 10 -4z"/>
<path d="M460 4800 c-14 -11 -36 -22 -50 -25 -37 -10 -122 -60 -149 -89 -14
-14 -31 -26 -38 -26 -7 0 -21 -4 -31 -9 -71 -35 -91 -47 -119 -75 -17 -17 -41
-40 -52 -50 -21 -19 -21 -27 -21 -567 l0 -548 25 -26 c14 -14 33 -25 42 -25
13 0 14 -3 5 -12 -18 -18 -15 -36 7 -43 11 -3 29 -22 40 -41 16 -26 26 -34 40
-29 26 8 50 -4 66 -34 8 -14 14 -20 15 -13 0 6 10 12 23 12 13 0 29 -6 36 -12
11 -10 14 -10 18 0 6 17 30 15 41 -3 4 -9 19 -17 31 -18 13 -1 30 -11 38 -24
12 -19 18 -20 34 -10 10 6 19 21 19 32 0 15 3 16 9 7 14 -23 22 42 27 225 2
94 11 227 20 295 30 245 53 850 33 888 -45 88 -69 151 -69 180 0 52 -11 62
-40 40z"/>
<path d="M3095 4628 c-72 -9 -122 -26 -192 -64 -63 -35 -250 -161 -279 -189
-124 -118 -184 -181 -184 -191 0 -7 -3 -14 -7 -16 -5 -1 -19 -19 -33 -38 -24
-34 -25 -40 -25 -205 0 -162 1 -171 23 -203 13 -18 35 -68 48 -110 24 -80 84
-172 110 -172 8 0 14 -5 14 -11 0 -6 7 -9 15 -5 9 3 15 0 15 -9 0 -8 5 -15 11
-15 6 0 9 6 6 14 -9 22 39 109 72 134 18 13 31 32 31 45 0 12 6 43 14 68 8 25
17 113 21 195 5 104 11 156 21 172 8 12 19 20 23 18 10 -6 51 27 51 41 0 5 12
20 26 34 35 32 70 88 95 152 53 138 83 178 178 242 38 25 72 45 77 45 4 0 15
6 23 14 11 9 23 11 38 5 30 -11 38 -72 24 -201 -12 -121 -27 -379 -21 -393 1
-5 3 -19 3 -30 -1 -11 4 -34 9 -52 6 -23 5 -46 -7 -85 -14 -49 -14 -59 0 -97
13 -38 13 -48 -1 -94 -9 -29 -20 -63 -25 -76 -6 -14 -14 -68 -19 -120 -16
-160 -32 -211 -66 -211 -7 0 -36 14 -64 30 -28 17 -59 32 -68 34 -9 2 -25 7
-35 11 -11 4 -28 2 -43 -6 -30 -16 -77 -2 -82 24 -2 10 -16 30 -30 46 -21 22
-32 27 -47 21 -35 -15 -75 -11 -75 5 0 23 -24 28 -65 15 -38 -13 -47 -39 -15
-47 11 -3 20 -11 20 -18 0 -7 13 -19 28 -26 15 -6 41 -31 56 -53 36 -53 75
-79 162 -106 64 -21 125 -25 199 -15 17 2 59 7 95 9 115 10 224 28 251 42 14
7 29 11 32 8 3 -3 15 0 27 6 17 9 21 9 15 0 -5 -8 2 -11 21 -8 18 2 29 9 29
18 0 8 3 20 7 25 3 6 2 19 -2 30 -7 19 -7 19 -14 -3 -4 -12 -12 -20 -17 -16
-5 3 -7 9 -5 13 3 4 1 24 -4 44 -5 25 -5 35 3 30 7 -4 8 8 5 35 -4 26 -2 42 6
45 6 2 12 30 13 68 1 35 3 66 4 69 1 3 1 9 0 14 -1 4 3 13 8 20 5 6 12 52 15
101 3 50 8 115 12 146 5 46 3 60 -12 77 -10 12 -23 22 -29 22 -5 0 -4 -4 3 -9
10 -6 7 -10 -13 -15 -22 -6 -26 -12 -24 -39 1 -18 -3 -50 -9 -72 -5 -22 -13
-61 -17 -87 -3 -26 -11 -50 -17 -54 -21 -13 -29 24 -26 131 2 61 -1 117 -6
125 -14 21 -18 78 -6 85 5 3 10 21 10 40 0 19 5 46 11 62 10 27 27 103 35 153
10 73 39 150 55 150 4 0 17 -12 28 -27 19 -26 20 -27 21 -6 0 12 -12 36 -27
54 -16 18 -27 34 -25 36 22 27 -64 109 -168 160 -39 19 -204 25 -315 11z m361
-624 c-7 -25 -9 -26 -23 -12 -9 10 -12 21 -7 29 5 9 9 8 15 -7 7 -17 8 -16 8
5 1 13 4 22 7 18 4 -3 3 -18 0 -33z m74 -444 c12 -8 11 -10 -7 -10 -13 0 -23
5 -23 10 0 13 11 13 30 0z m14 -287 c5 -17 3 -29 -6 -34 -15 -10 -28 7 -28 39
0 31 26 28 34 -5z"/>
<path d="M3697 4263 c-4 -6 -9 -66 -11 -134 -6 -163 -15 -294 -27 -403 -16
-149 -20 -246 -10 -264 9 -16 10 -15 17 3 8 23 123 193 135 201 4 2 5 28 2 57
-4 36 0 64 11 91 9 21 16 47 16 57 0 10 11 26 25 35 32 21 32 38 0 52 -25 12
-50 56 -40 72 3 5 1 28 -5 52 -5 24 -12 55 -15 70 -6 32 -89 126 -98 111z"/>
<path d="M4065 4250 c-3 -5 -1 -10 4 -10 6 0 11 5 11 10 0 6 -2 10 -4 10 -3 0
-8 -4 -11 -10z"/>
<path d="M3602 3980 c0 -14 2 -19 5 -12 2 6 2 18 0 25 -3 6 -5 1 -5 -13z"/>
<path d="M4045 3980 c3 -5 8 -10 11 -10 2 0 4 5 4 10 0 6 -5 10 -11 10 -5 0
-7 -4 -4 -10z"/>
<path d="M3944 3965 c3 -8 1 -15 -4 -15 -6 0 -10 -4 -10 -10 0 -19 28 -10 44
15 16 24 16 25 -10 25 -19 0 -25 -4 -20 -15z"/>
<path d="M0 2731 l0 -263 27 -50 c25 -45 26 -53 16 -100 -14 -67 -4 -99 34
-118 17 -8 41 -26 53 -40 12 -14 26 -25 31 -25 4 0 17 -8 29 -17 20 -18 20
-17 20 52 0 42 -4 70 -10 70 -7 0 -7 6 -1 18 6 12 5 23 -5 36 -7 10 -11 23 -7
29 7 11 -23 148 -43 195 -8 18 -12 38 -8 43 3 5 1 15 -4 22 -5 7 -12 36 -15
66 -4 29 -11 59 -18 67 -6 7 -8 17 -5 23 4 5 0 16 -8 24 -8 8 -24 50 -35 94
-12 44 -27 93 -36 109 -14 27 -15 7 -15 -235z"/>
<path d="M1 948 l-1 -948 605 0 c397 0 605 3 605 10 0 6 -4 10 -8 10 -5 0 -14
11 -20 25 -6 14 -18 25 -26 25 -7 0 -16 7 -20 15 -3 8 -17 20 -32 25 -14 6
-28 20 -31 31 -4 15 -11 19 -25 16 -19 -5 -19 -4 -3 13 15 17 13 21 -38 74
-29 31 -57 56 -60 56 -10 0 -47 33 -47 43 0 4 -15 24 -34 43 -19 19 -39 48
-46 64 -8 19 -20 30 -32 30 -25 0 -98 73 -98 98 0 11 -7 25 -15 32 -9 7 -14
19 -11 26 3 8 0 11 -10 7 -8 -3 -14 1 -14 11 0 10 -9 16 -25 16 -14 0 -25 -4
-25 -10 0 -20 -29 -9 -49 19 -28 39 -28 91 -1 98 28 7 25 19 -9 33 -21 8 -35
26 -48 56 -10 24 -23 44 -30 44 -6 0 -21 12 -32 26 -12 15 -21 23 -21 18 0 -5
-10 -15 -21 -23 -20 -12 -21 -11 -16 9 4 17 -2 26 -29 42 -26 15 -34 26 -33
47 2 35 -22 88 -66 145 -19 25 -35 55 -35 65 0 11 -7 26 -15 35 -9 9 -15 34
-15 65 0 41 -3 49 -15 45 -15 -6 -22 5 -28 42 -1 12 -10 29 -20 38 -9 10 -20
29 -23 44 -3 15 -10 39 -16 54 -13 35 -5 46 32 40 19 -3 30 0 30 8 0 7 -7 10
-15 6 -11 -4 -15 2 -15 20 0 31 -59 186 -76 199 -7 6 -15 21 -17 35 -2 14 -5
-401 -6 -922z"/>
<path d="M4072 1860 c0 -14 2 -19 5 -12 2 6 2 18 0 25 -3 6 -5 1 -5 -13z"/>
<path d="M3927 1724 c-4 -4 -4 -12 0 -17 4 -6 8 -38 10 -70 2 -37 10 -72 23
-91 11 -19 17 -41 13 -54 -6 -25 -4 -26 32 -12 23 9 26 14 20 39 -3 16 -7 51
-7 79 -1 44 -7 56 -39 91 -38 43 -42 45 -52 35z"/>
<path d="M5583 520 c-28 -12 -30 -40 -3 -40 11 0 20 7 20 15 0 8 5 15 10 15 6
0 10 5 10 10 0 12 -7 12 -37 0z"/>
</g>
</svg>
