<?xml version="1.0" standalone="no"?>
<!DOCTYPE svg PUBLIC "-//W3C//DTD SVG 20010904//EN"
 "http://www.w3.org/TR/2001/REC-SVG-20010904/DTD/svg10.dtd">
<svg version="1.0" xmlns="http://www.w3.org/2000/svg"
 width="290.000000pt" height="290.000000pt" viewBox="0 0 290.000000 290.000000"
 preserveAspectRatio="xMidYMid meet">
<metadata>
Created by potrace 1.11, written by Peter Selinger 2001-2013
</metadata>
<g transform="translate(0.000000,290.000000) scale(0.100000,-0.100000)"
fill="#000000" stroke="none">
<path d="M1553 2769 c-3 -10 -9 -19 -13 -19 -5 0 -7 -12 -5 -27 2 -16 -2 -34
-7 -40 -7 -9 -6 -13 3 -13 9 0 10 -3 4 -8 -12 -8 -15 -22 -21 -82 -2 -25 -6
-56 -9 -70 -12 -55 -18 -96 -19 -122 -1 -16 -5 -28 -9 -28 -5 0 -5 -4 -2 -10
6 -9 -27 -16 -50 -10 -5 2 -21 2 -35 1 -14 -2 -31 -2 -37 -2 -37 2 -133 1
-166 -2 -21 -1 -41 1 -43 5 -3 4 -15 3 -28 -2 -13 -5 -27 -6 -30 -3 -6 6 -63
6 -141 0 -16 -1 -40 1 -52 5 -12 4 -25 3 -28 -3 -4 -5 -10 -7 -14 -4 -10 5
-89 7 -144 3 -21 -2 -41 0 -43 4 -3 4 -16 3 -29 -2 -15 -6 -27 -6 -30 0 -11
17 -55 -12 -55 -36 0 -29 14 -37 67 -39 23 0 45 -3 48 -6 3 -3 9 -27 14 -52 6
-33 5 -47 -3 -47 -7 0 -7 -3 1 -8 7 -4 14 -30 16 -57 3 -28 7 -57 10 -65 3 -8
5 -22 5 -30 0 -8 3 -37 8 -65 4 -27 8 -58 8 -67 0 -10 4 -18 8 -18 4 0 8 -5 8
-11 0 -5 -5 -7 -12 -3 -7 5 -8 3 -2 -7 4 -8 9 -25 10 -39 1 -14 2 -25 3 -25 3
0 13 -83 14 -112 1 -13 6 -23 12 -23 5 0 3 -5 -5 -10 -8 -5 -10 -10 -3 -10 6
0 10 -8 9 -17 -2 -9 1 -35 5 -57 4 -23 10 -63 13 -91 4 -27 8 -64 10 -82 3
-18 8 -38 12 -44 5 -8 3 -9 -5 -4 -10 6 -11 3 -3 -12 6 -11 12 -45 14 -76 2
-31 5 -57 8 -57 3 0 6 -12 6 -28 1 -26 5 -55 20 -152 4 -25 8 -62 8 -82 1 -21
4 -38 7 -38 3 0 6 -12 6 -27 1 -16 4 -46 8 -68 10 -61 16 -125 18 -177 1 -25
5 -44 10 -41 4 2 7 -15 7 -39 0 -24 5 -49 12 -56 8 -8 9 -12 1 -12 -8 0 -9
-10 -1 -36 5 -20 7 -42 4 -50 -3 -8 -2 -14 3 -14 5 0 8 -8 8 -17 -1 -10 3 -46
7 -80 8 -61 16 -73 56 -78 8 -1 38 -5 65 -9 100 -15 111 -16 182 -20 40 -3 77
-7 83 -11 5 -3 10 -2 10 3 0 5 7 9 15 9 8 0 15 -3 15 -7 0 -4 7 -7 15 -7 8 0
15 5 15 11 0 6 4 6 11 -1 8 -8 20 -8 34 -3 13 5 25 6 28 3 7 -7 87 -10 87 -3
0 3 24 5 53 6 65 1 170 12 217 23 20 4 43 7 52 5 23 -3 42 22 44 59 1 18 6 52
10 77 4 25 7 55 8 68 0 12 2 22 6 22 3 0 6 17 7 38 1 20 5 62 9 92 4 30 7 65
7 78 1 12 4 22 7 22 3 0 7 19 8 43 1 23 4 52 6 64 7 35 22 141 30 218 5 46 15
117 20 145 3 14 7 45 10 70 3 25 8 59 12 75 3 17 7 41 8 55 1 14 5 31 9 38 5
7 3 12 -3 12 -7 0 -8 6 -2 18 5 9 8 27 7 40 -1 12 1 22 5 22 4 0 7 12 8 28 0
15 1 29 2 32 1 3 3 16 5 30 2 14 6 45 9 70 4 25 8 56 10 70 10 76 17 118 21
139 2 14 7 47 10 75 3 28 8 65 11 81 2 17 6 44 9 60 2 17 7 50 11 75 4 25 8
56 9 70 2 14 4 25 5 25 1 0 3 15 5 33 4 43 7 45 59 47 23 1 48 5 54 9 13 8 17
56 5 57 -5 0 -17 2 -28 4 -25 5 -99 6 -148 3 -21 -2 -41 0 -43 4 -3 4 -15 3
-28 -2 -13 -5 -27 -6 -30 -3 -8 8 -87 7 -112 -1 -10 -3 -25 -2 -33 3 -7 5 -25
5 -40 1 -14 -4 -35 -4 -46 0 -11 4 -29 4 -41 0 -11 -5 -28 -4 -37 1 -11 7 -17
6 -17 -1 0 -8 -6 -8 -20 0 -15 8 -18 17 -14 43 3 17 6 47 7 65 1 17 4 32 7 32
3 0 7 10 7 23 4 71 7 88 13 92 3 2 6 20 5 39 -1 20 1 36 4 36 4 0 7 20 8 45 1
25 -2 43 -6 40 -5 -3 -11 -1 -13 4 -3 9 -44 17 -127 26 -26 2 -34 -1 -38 -16z
m98 -69 c5 0 7 -10 5 -22 -8 -37 -18 -111 -19 -140 0 -16 -3 -28 -7 -28 -3 0
-6 -10 -7 -22 -2 -49 -8 -88 -13 -88 -3 0 -6 -12 -6 -27 1 -23 -3 -28 -25 -29
-22 -1 -25 2 -22 25 2 14 5 35 7 46 12 86 20 122 30 134 8 11 8 13 -1 7 -7 -4
-13 -2 -13 3 0 6 4 11 10 11 5 0 7 14 5 30 -2 17 0 30 4 30 5 0 8 8 8 18 0 54
3 64 19 58 9 -3 20 -6 25 -6z m-189 -444 c3 -5 2 -20 -3 -33 -5 -12 -6 -23 -3
-23 3 0 2 -5 -2 -12 -4 -6 -8 -25 -10 -42 -1 -17 -4 -44 -7 -61 -11 -61 -20
-130 -21 -147 0 -10 -3 -18 -6 -18 -3 0 -6 -11 -6 -25 -3 -44 -11 -54 -41 -50
-36 5 -89 14 -133 24 -56 12 -213 5 -310 -14 -13 -2 -42 -7 -64 -11 -22 -3
-44 -8 -48 -10 -4 -2 -7 4 -7 13 0 10 -2 34 -5 53 -2 19 -7 58 -11 85 -3 28
-10 66 -14 85 -4 19 -6 47 -6 63 1 15 -2 27 -5 27 -9 0 -9 94 0 100 16 10 695
6 702 -4z m131 5 c5 -1 5 -7 0 -13 -4 -7 -8 -20 -10 -28 -1 -8 -5 -35 -9 -60
-3 -25 -8 -56 -11 -70 -2 -14 -4 -33 -4 -42 0 -10 -3 -18 -7 -18 -4 0 -8 -17
-9 -38 -1 -36 -10 -107 -13 -107 -2 0 -11 -68 -11 -87 0 -10 -5 -20 -10 -23
-5 -4 -7 -11 -3 -16 12 -21 -6 -57 -31 -61 -21 -4 -25 -1 -25 17 0 12 3 25 7
29 4 3 8 19 9 34 5 48 13 117 14 117 2 0 7 26 14 72 3 21 8 49 10 63 9 51 18
116 19 138 1 12 4 22 7 22 3 0 5 16 5 35 -1 19 2 32 7 29 4 -3 8 -1 8 5 0 5 8
8 18 6 9 -2 21 -4 25 -4z m530 -46 c-3 -54 -10 -140 -13 -140 -3 0 -10 -42
-12 -77 -2 -21 -5 -38 -8 -38 -3 0 -6 -17 -6 -38 -1 -34 -12 -103 -17 -109 -2
-1 -23 5 -47 14 -61 21 -79 24 -194 27 -73 2 -110 -1 -145 -14 -25 -9 -52 -16
-58 -14 -7 1 -18 2 -24 3 -6 0 -7 6 -2 14 4 6 9 23 10 37 9 83 16 130 22 130
3 0 7 17 8 38 1 37 10 105 20 152 2 14 6 34 8 45 2 11 4 20 4 20 1 0 103 0
229 0 l227 0 -2 -50z m-903 -428 c0 -7 4 -6 10 3 5 8 10 10 10 4 0 -5 17 -10
38 -11 20 0 44 -3 52 -6 8 -3 24 -7 35 -10 12 -2 18 -9 16 -18 -2 -8 -4 -26
-4 -41 -1 -23 -7 -28 -46 -39 -25 -7 -53 -14 -61 -14 -8 0 -21 -4 -28 -9 -14
-8 -149 1 -166 12 -6 3 -22 8 -36 10 -14 1 -32 5 -40 9 -8 3 -22 7 -30 9 -9 2
-34 11 -55 20 -22 10 -46 17 -52 15 -7 -1 -13 3 -13 9 0 5 -7 10 -15 10 -23 0
-18 19 8 25 55 12 85 17 129 18 25 1 44 5 42 9 -2 4 43 7 101 6 73 0 105 -3
105 -11z m700 -12 c19 -4 41 -12 49 -18 12 -9 13 -9 7 1 -4 6 -5 12 -1 12 3 0
15 -6 28 -12 44 -25 55 -39 49 -61 -6 -24 -32 -48 -44 -41 -4 3 -13 -4 -19
-15 -7 -10 -19 -17 -26 -14 -7 3 -13 1 -13 -4 0 -6 -29 -10 -65 -10 -62 -1
-120 18 -149 47 -5 5 -18 10 -28 10 -10 0 -18 5 -18 12 0 6 -3 8 -6 5 -4 -3
-16 -2 -27 4 -10 6 -17 7 -14 2 4 -6 -9 -5 -28 1 -27 8 -35 16 -35 34 0 13 4
21 9 18 4 -3 48 5 97 17 86 23 159 26 234 12z m-1002 -148 c12 -2 25 -6 28
-10 4 -4 16 -7 26 -7 10 0 18 -4 18 -8 0 -4 8 -8 18 -9 34 -2 83 -12 93 -19
17 -10 179 -6 193 5 7 6 16 8 19 4 4 -3 7 -1 7 4 0 6 8 10 17 9 10 -2 31 3 48
9 16 7 40 11 53 10 12 -1 22 1 22 4 0 6 160 7 170 1 3 -2 10 -4 15 -5 6 -1 46
-19 89 -40 98 -48 162 -53 249 -19 l57 23 -5 -22 c-3 -12 -7 -38 -9 -57 -3
-19 -8 -55 -12 -80 -3 -25 -7 -51 -7 -57 0 -7 -5 -13 -11 -13 -6 0 -6 -4 1
-11 7 -7 8 -21 2 -41 -4 -17 -6 -35 -3 -39 3 -5 1 -9 -3 -9 -5 0 -8 -12 -7
-27 0 -15 -3 -47 -8 -72 -13 -72 -19 -122 -21 -178 -1 -28 -5 -49 -9 -46 -7 3
-13 -64 -9 -89 0 -5 -3 -8 -7 -8 -4 0 -7 -16 -7 -35 1 -19 -3 -35 -8 -35 -5 0
-4 -6 2 -13 6 -8 8 -17 4 -21 -8 -8 -12 -27 -14 -76 -1 -19 -5 -39 -8 -45 -3
-5 -6 -21 -7 -35 -3 -49 -14 -138 -24 -189 -5 -29 -9 -55 -9 -59 1 -4 0 -11
-1 -17 -1 -5 -3 -14 -5 -20 -1 -5 -3 -17 -3 -26 -1 -9 -13 -19 -26 -21 -20 -4
-24 -1 -20 15 2 11 8 25 13 30 12 12 -4 57 -26 75 -15 11 -15 12 -1 12 23 0
80 59 71 73 -4 7 -8 19 -10 27 -3 23 -41 49 -64 45 -16 -3 -19 -1 -14 13 22
53 8 94 -36 110 -25 10 -79 -3 -79 -18 0 -4 -8 -11 -17 -14 -10 -4 -15 -4 -11
-1 3 4 -2 15 -13 26 -25 25 -85 23 -106 -5 -11 -15 -16 -17 -20 -8 -8 20 -45
52 -61 52 -13 0 -13 2 0 18 14 15 19 86 7 95 -17 13 -61 25 -78 22 -16 -3 -19
2 -19 25 1 42 -36 72 -82 65 -47 -6 -62 -29 -56 -85 3 -25 2 -40 -2 -35 -22
30 -120 -10 -107 -43 4 -10 0 -13 -12 -9 -32 9 -38 9 -60 8 -12 0 -29 -8 -38
-17 -26 -27 -32 -11 -38 108 -1 27 -5 48 -9 48 -4 0 -4 7 -1 17 4 9 2 14 -3
11 -5 -4 -9 15 -8 43 0 29 -4 49 -10 49 -6 0 -4 5 4 10 10 6 11 10 2 10 -6 0
-11 3 -10 8 2 6 -9 110 -18 172 -1 8 -5 36 -8 62 -3 26 -8 62 -11 80 -3 18 -8
49 -11 68 -3 19 -7 53 -9 75 -2 22 -4 40 -5 40 -1 0 -3 11 -5 25 -10 72 -13
109 -8 113 2 3 17 -1 32 -9 15 -7 37 -15 49 -17z m351 -872 c16 9 42 -7 36
-23 -7 -19 21 -62 40 -62 19 0 30 -21 16 -30 -21 -13 -16 -69 9 -95 13 -13 26
-22 31 -20 4 3 10 1 14 -5 3 -5 3 -10 -2 -10 -4 0 -16 -14 -25 -31 -10 -16
-14 -28 -10 -25 4 2 9 -4 9 -16 1 -11 15 -31 30 -44 16 -14 22 -24 14 -24 -7
0 -24 -11 -37 -25 -13 -14 -19 -25 -15 -25 5 0 7 -12 5 -26 -1 -15 3 -28 12
-31 8 -3 14 -11 14 -19 0 -10 12 -14 38 -14 38 0 63 16 75 50 4 12 6 11 6 -3
1 -10 8 -25 16 -33 8 -9 15 -19 15 -22 0 -13 -289 -8 -294 5 -3 6 2 14 10 17
8 3 14 19 14 36 0 26 4 30 27 30 35 0 73 36 73 70 0 42 -26 70 -66 70 -31 0
-34 3 -34 28 0 16 -3 32 -7 36 -14 14 -10 34 8 39 37 10 48 73 21 115 -5 7
-24 14 -42 16 -19 1 -35 9 -38 17 -3 11 -1 11 7 -1 6 -8 11 -10 11 -4 0 5 -5
15 -12 22 -7 7 -9 12 -5 12 4 0 3 9 -3 21 -11 19 -10 20 9 9 12 -6 25 -8 30
-5z m-134 -105 c4 -6 12 -10 18 -9 24 3 38 -1 33 -10 -3 -4 -1 -22 4 -40 7
-27 5 -35 -16 -56 -22 -22 -28 -23 -26 -4 2 14 -47 59 -60 56 -7 -2 -10 -2 -5
0 4 3 5 9 1 14 -3 5 0 9 5 9 6 0 11 7 11 15 0 8 5 15 11 15 5 0 7 5 4 10 -3 6
-2 10 4 10 5 0 13 -5 16 -10z m-119 -62 c16 9 26 -1 11 -12 -25 -19 -33 -78
-14 -98 9 -9 13 -18 10 -22 -4 -3 3 -6 15 -6 26 0 26 -3 9 -33 -7 -12 -12 -29
-11 -37 4 -31 17 -60 24 -55 5 3 11 1 15 -5 3 -5 21 -10 39 -10 28 0 33 -3 32
-22 -1 -13 5 -34 14 -48 9 -14 10 -21 3 -17 -7 4 -32 10 -55 13 -85 9 -86 10
-92 40 -5 22 -19 143 -19 162 0 6 -3 12 -6 12 -3 0 -7 21 -8 48 -1 26 -4 65
-8 86 l-6 40 22 -20 c11 -10 23 -18 25 -16z m518 -76 c29 -13 67 -5 89 19 10
11 20 19 22 17 12 -15 25 -49 16 -44 -6 4 -11 2 -11 -5 0 -8 -4 -9 -13 0 -10
8 -19 6 -35 -10 -12 -11 -22 -23 -23 -27 0 -4 -2 -15 -4 -26 -4 -21 14 -66 27
-66 4 0 8 -4 8 -10 0 -5 -7 -7 -15 -4 -9 4 -27 -7 -45 -26 -17 -18 -28 -26
-25 -18 9 24 -37 64 -68 59 -5 -1 -6 3 -2 8 3 6 12 8 20 4 8 -3 15 0 15 6 0 6
7 11 15 11 14 0 19 12 16 33 0 4 3 7 9 7 14 0 -7 51 -31 73 -10 10 -19 15 -19
12 0 -3 -4 -4 -10 0 -5 3 -2 14 8 26 17 20 17 20 26 -5 5 -13 19 -29 30 -34z
m167 -16 c12 7 31 -5 24 -17 -8 -12 -45 8 -44 24 0 9 2 9 6 -1 2 -6 9 -10 14
-6z m-555 -35 c0 -11 -5 -17 -13 -14 -14 6 -17 16 -6 26 11 12 19 7 19 -12z
m84 -54 c13 4 17 -2 16 -23 -2 -23 -7 -27 -35 -29 -22 -2 -31 1 -28 10 3 6 1
18 -3 25 -12 20 -2 32 17 21 9 -4 24 -6 33 -4z m509 -16 c10 -7 7 -12 -15 -22
-16 -8 -33 -24 -39 -36 l-11 -22 -13 21 c-10 16 -10 23 0 32 9 8 10 7 4 -4 -4
-8 5 -3 21 13 32 30 33 30 53 18z m-35 -139 c2 -4 2 -12 -2 -17 -10 -14 -52
-18 -52 -5 0 6 5 8 10 5 6 -3 10 1 10 9 0 17 25 22 34 8z"/>
<path d="M1795 746 c-31 -17 -44 -39 -44 -71 0 -58 80 -89 122 -47 22 22 26
74 7 97 -19 23 -63 34 -85 21z"/>
</g>
</svg>
